<?xml version="1.0" standalone="no"?>
<!DOCTYPE svg PUBLIC "-//W3C//DTD SVG 1.1//EN" "http://www.w3.org/Graphics/SVG/1.1/DTD/svg11.dtd" >
<svg xmlns="http://www.w3.org/2000/svg" xmlns:xlink="http://www.w3.org/1999/xlink" version="1.1">
<metadata>
Created by FontForge 20161003 at Mon May  7 11:19:39 2018
 By www-data
 Copyright 1987, 1991, 1993, 2002 Fundicion Tipografica Neufville S. A.
 This record material and the data recorded thereon is the property of
 Fundicion Tipografica Neufville S. A. and Adobe Systems Incorporated, 
 or its licensors, and may not be reproduced, used, displayed, modified,
 disclosed or transferred in any manner without the express written
 approval of Fundicion Tipografica Neufville S. A. and Adobe Systems
 Incorporated. 
</metadata>
<defs>
<font id="FuturaStd-Bold" horiz-adv-x="686" >
  <font-face 
    font-family="Futura Std"
    font-weight="700"
    font-stretch="normal"
    units-per-em="1000"
    panose-1="2 11 8 2 2 2 4 2 2 4"
    ascent="825"
    descent="-175"
    x-height="513"
    cap-height="754"
    bbox="-171 -264 1441 1040"
    underline-thickness="50"
    underline-position="-100"
    stemh="158"
    stemv="182"
    unicode-range="U+0020-FB02"
  />
<missing-glyph horiz-adv-x="500" 
d="M0 0v700h500v-700h-500zM250 395l170 255h-340zM280 350l170 -255v510zM80 50h340l-170 255zM50 605v-510l170 255z" />
    <glyph glyph-name="fi" unicode="fi" horiz-adv-x="679" 
d="M254 363v-363h-182v363h-64v150h64v65c0 71 2 123 52 180c45 53 110 82 179 82c28 0 53 -5 78 -18v-157c-21 9 -40 17 -64 17c-47 0 -63 -28 -63 -86v-83h127v-150h-127zM619 513v-513h-182v513h182zM528 812c56 0 102 -46 102 -102s-46 -102 -102 -102s-102 46 -102 102
s46 102 102 102z" />
    <glyph glyph-name="fl" unicode="fl" horiz-adv-x="690" 
d="M630 830v-830h-182v830h182zM254 363v-363h-182v363h-64v150h64v65c0 71 2 123 52 180c45 53 110 82 179 82c28 0 53 -5 78 -18v-157c-21 9 -40 17 -64 17c-47 0 -63 -28 -63 -86v-83h127v-150h-127z" />
    <glyph glyph-name=".notdef" horiz-adv-x="500" 
d="M0 0v700h500v-700h-500zM250 395l170 255h-340zM280 350l170 -255v510zM80 50h340l-170 255zM50 605v-510l170 255z" />
    <glyph glyph-name="space" unicode=" " horiz-adv-x="343" 
 />
    <glyph glyph-name="exclam" unicode="!" horiz-adv-x="384" 
d="M192 214c65 0 117 -52 117 -117c0 -64 -52 -117 -117 -117s-117 53 -117 117c0 65 52 117 117 117zM98 256v498h189v-498h-189z" />
    <glyph glyph-name="quotedbl" unicode="&#x22;" horiz-adv-x="500" 
d="M47 754h170l-27 -331h-116zM283 754h170l-27 -331h-116z" />
    <glyph glyph-name="numbersign" unicode="#" 
d="M265 726h106l-39 -203h101l39 203h105l-39 -203h80v-113h-98l-24 -124h94v-113h-118l-33 -173h-106l33 173h-101l-33 -173h-106l33 173h-91v113h113l24 124h-96v113h117zM311 410l-24 -124h102l26 124h-104z" />
    <glyph glyph-name="dollar" unicode="$" 
d="M68 87l82 151c46 -43 117 -84 181 -84c42 0 94 24 94 73c0 56 -78 66 -157 95c-78 29 -157 74 -157 196c0 118 82 227 204 235v121h93v-121c63 -6 128 -23 182 -58l-74 -145c-36 29 -81 49 -128 49c-44 0 -85 -16 -85 -56c0 -46 63 -66 98 -78c114 -38 217 -80 217 -219
c0 -140 -80 -212 -210 -244v-125h-93v119c-44 0 -87 9 -129 25s-85 35 -118 66z" />
    <glyph glyph-name="percent" unicode="%" horiz-adv-x="975" 
d="M225 764c112 0 206 -63 206 -183c0 -122 -91 -186 -206 -186s-206 64 -206 186c0 120 94 183 206 183zM225 664c-47 0 -85 -38 -85 -85s38 -84 85 -84s85 37 85 84s-38 85 -85 85zM750 359c112 0 206 -63 206 -183c0 -122 -91 -186 -206 -186s-206 64 -206 186
c0 120 94 183 206 183zM750 259c-47 0 -85 -38 -85 -85s38 -84 85 -84s85 37 85 84s-38 85 -85 85zM657 754h98l-438 -754h-98z" />
    <glyph glyph-name="ampersand" unicode="&#x26;" horiz-adv-x="848" 
d="M431 187l-119 128c-32 -20 -71 -48 -71 -90c0 -45 45 -69 85 -69c37 0 74 13 105 31zM393 479c34 19 70 51 70 92c0 38 -26 70 -66 70c-35 0 -63 -25 -63 -62s35 -73 59 -100zM603 0l-65 70c-75 -51 -167 -90 -258 -90c-130 0 -242 78 -242 216c0 113 67 168 162 210
l18 8l-16 22c-24 33 -54 69 -54 131c0 130 113 207 234 207c120 0 236 -76 236 -205c0 -94 -62 -142 -140 -181l95 -100c37 33 71 67 99 107l111 -106l-95 -102l-9 -9l169 -178h-245z" />
    <glyph glyph-name="quoteright" unicode="&#x2019;" horiz-adv-x="372" 
d="M183 754h170l-184 -331h-116z" />
    <glyph glyph-name="parenleft" unicode="(" horiz-adv-x="352" 
d="M194 790l109 -62c-82 -132 -115 -300 -115 -454c0 -143 35 -331 115 -452l-109 -62c-105 137 -145 357 -145 526c0 165 47 369 145 504z" />
    <glyph glyph-name="parenright" unicode=")" horiz-adv-x="352" 
d="M49 728l109 62c98 -135 145 -339 145 -504c0 -169 -40 -389 -145 -526l-109 62c80 121 115 309 115 452c0 154 -33 322 -115 454z" />
    <glyph glyph-name="asterisk" unicode="*" horiz-adv-x="483" 
d="M196 754h90l-5 -107l89 56l45 -76l-95 -50l94 -52l-45 -75l-88 57l4 -101h-90l6 100l-85 -54l-45 76l90 50l-93 51l46 76l87 -55z" />
    <glyph glyph-name="plus" unicode="+" 
d="M268 332v181h150v-181h181v-150h-181v-182h-150v182h-181v150h181z" />
    <glyph glyph-name="comma" unicode="," horiz-adv-x="343" 
d="M152 191h171l-184 -332h-117z" />
    <glyph glyph-name="hyphen" unicode="-" horiz-adv-x="392" 
d="M53 396h286v-150h-286v150z" />
    <glyph glyph-name="period" unicode="." horiz-adv-x="343" 
d="M172 214c65 0 117 -52 117 -117c0 -64 -52 -117 -117 -117s-117 53 -117 117c0 65 52 117 117 117z" />
    <glyph glyph-name="slash" unicode="/" horiz-adv-x="579" 
d="M409 830h143l-382 -923h-143z" />
    <glyph glyph-name="zero" unicode="0" 
d="M343 784c224 0 320 -211 320 -407s-95 -407 -320 -407s-320 211 -320 407s96 407 320 407zM343 611c-101 0 -125 -160 -125 -233s24 -235 125 -235s125 162 125 235s-24 233 -125 233z" />
    <glyph glyph-name="one" unicode="1" 
d="M269 588h-108v166h304v-754h-196v588z" />
    <glyph glyph-name="two" unicode="2" 
d="M392 166h247v-166h-606l308 335c44 48 86 116 86 185c0 48 -34 98 -86 98c-53 0 -82 -41 -82 -92c0 -10 1 -21 3 -32h-216c6 173 116 290 294 290c158 0 291 -104 291 -268c0 -108 -45 -171 -122 -241z" />
    <glyph glyph-name="three" unicode="3" 
d="M255 537h-182c8 79 40 139 88 182s115 65 192 65c135 0 241 -78 241 -219c0 -60 -24 -124 -79 -155c80 -21 123 -113 123 -190c0 -165 -143 -250 -293 -250c-86 0 -164 23 -225 85c-45 46 -88 124 -86 190h200c0 -60 43 -107 105 -107c60 0 105 40 105 101
c0 57 -49 101 -104 101c-12 0 -23 -3 -34 -6v131h20c50 0 86 31 86 83c0 46 -33 76 -77 76c-50 0 -81 -38 -80 -87z" />
    <glyph glyph-name="four" unicode="4" 
d="M564 306h91v-150h-91v-156h-182v156h-366v125l291 473h257v-448zM382 306v290h-2l-176 -290h178z" />
    <glyph glyph-name="five" unicode="5" 
d="M563 588h-261l-13 -86l62 5c154 12 267 -114 267 -270c0 -79 -35 -153 -97 -204c-60 -48 -145 -63 -220 -63c-86 0 -173 21 -246 68l29 185c58 -52 132 -87 210 -87c62 0 120 45 120 111c0 91 -87 129 -165 129c-50 0 -99 -10 -144 -31l66 409h392v-166z" />
    <glyph glyph-name="six" unicode="6" 
d="M306 754h222l-214 -255l2 -2c34 15 66 23 105 23c148 0 242 -127 242 -265c0 -185 -152 -285 -324 -285c-73 0 -157 19 -215 65c-60 50 -101 129 -101 207c0 109 56 215 121 300zM338 124c69 0 121 56 121 125c0 68 -52 123 -121 123c-68 0 -124 -55 -124 -123
c0 -69 56 -125 124 -125z" />
    <glyph glyph-name="seven" unicode="7" 
d="M386 588h-315v166h619l-433 -754h-215z" />
    <glyph glyph-name="eight" unicode="8" 
d="M343 648c-46 0 -83 -38 -83 -85s37 -85 83 -85s83 38 83 85s-37 85 -83 85zM343 317c-50 0 -90 -42 -90 -94c0 -51 40 -92 90 -92s90 41 90 92c0 52 -40 94 -90 94zM343 784c129 0 257 -71 257 -215c0 -80 -50 -148 -119 -171v-2c90 -30 150 -99 150 -198
c0 -156 -158 -228 -288 -228s-288 72 -288 228c0 99 60 168 150 198v2c-69 23 -119 91 -119 171c0 144 128 215 257 215z" />
    <glyph glyph-name="nine" unicode="9" 
d="M381 0h-223l215 254l-2 2c-34 -15 -66 -23 -106 -23c-148 0 -242 127 -242 266c0 185 152 285 324 285c73 0 157 -18 215 -65c61 -49 101 -129 101 -208c0 -109 -56 -214 -121 -300zM348 629c-69 0 -121 -55 -121 -124s52 -124 121 -124s125 55 125 124s-56 124 -125 124
z" />
    <glyph glyph-name="colon" unicode=":" horiz-adv-x="343" 
d="M172 214c65 0 117 -52 117 -117c0 -64 -52 -117 -117 -117s-117 53 -117 117c0 65 52 117 117 117zM172 551c65 0 117 -52 117 -117c0 -64 -52 -117 -117 -117s-117 53 -117 117c0 65 52 117 117 117z" />
    <glyph glyph-name="semicolon" unicode=";" horiz-adv-x="343" 
d="M138 191h171l-184 -332h-117zM218 551c65 0 117 -52 117 -117c0 -64 -52 -117 -117 -117s-117 53 -117 117c0 65 52 117 117 117z" />
    <glyph glyph-name="less" unicode="&#x3c;" 
d="M99 197v120l489 182v-150l-274 -91v-2l274 -91v-150z" />
    <glyph glyph-name="equal" unicode="=" 
d="M87 452h512v-150h-512v150zM87 212h512v-150h-512v150z" />
    <glyph glyph-name="greater" unicode="&#x3e;" 
d="M588 317v-120l-489 -182v150l274 91v2l-274 91v150z" />
    <glyph glyph-name="question" unicode="?" horiz-adv-x="595" 
d="M186 252v194c14 -3 28 -5 42 -5c57 0 129 33 129 99c0 41 -31 75 -73 75c-46 0 -70 -33 -70 -76h-199c1 152 133 235 274 235c63 0 126 -20 175 -62c50 -42 86 -107 86 -173c0 -113 -79 -184 -181 -216v-71h-183zM281 214c65 0 117 -52 117 -117
c0 -64 -52 -117 -117 -117s-117 53 -117 117c0 65 52 117 117 117z" />
    <glyph glyph-name="at" unicode="@" horiz-adv-x="740" 
d="M280 354c0 -49 27 -92 76 -92c62 0 88 60 94 110c7 57 -23 97 -72 97c-57 0 -98 -60 -98 -115zM592 570l-50 -260c-5 -25 -17 -69 12 -66c36 4 93 87 98 174c9 169 -115 262 -268 262c-168 0 -285 -128 -285 -303c0 -185 131 -303 302 -303c83 0 147 20 179 40l82 -66
c-70 -36 -162 -68 -269 -68c-215 0 -388 168 -388 397c0 226 169 397 382 397c88 0 169 -27 235 -87c68 -60 112 -139 112 -234c0 -83 -22 -160 -62 -213c-48 -64 -106 -90 -154 -88c-28 1 -54 26 -62 58c-26 -30 -68 -58 -128 -58c-88 0 -168 83 -168 186
c0 123 80 241 204 241c51 0 93 -19 123 -62l10 53h95z" />
    <glyph glyph-name="A" unicode="A" horiz-adv-x="781" 
d="M526 131h-270l-52 -131h-208l290 754h214l284 -754h-209zM473 281l-80 240h-2l-81 -240h163z" />
    <glyph glyph-name="B" unicode="B" horiz-adv-x="677" 
d="M260 312v-162h25c58 0 156 -3 156 80c0 91 -97 82 -161 82h-20zM366 0h-302v754h280c134 0 224 -52 224 -196c0 -68 -22 -123 -83 -154v-2c108 -14 154 -87 154 -192c0 -158 -135 -210 -273 -210zM260 604v-146h22c52 0 106 9 106 73c0 69 -61 73 -114 73h-14z" />
    <glyph glyph-name="C" unicode="C" horiz-adv-x="660" 
d="M603 736v-235c-40 54 -105 83 -172 83c-120 0 -201 -92 -201 -209c0 -119 82 -205 204 -205c64 0 128 31 169 80v-235c-65 -20 -112 -35 -173 -35c-105 0 -205 40 -283 111c-83 75 -121 173 -121 285c0 103 39 202 111 276c74 76 181 122 287 122c63 0 121 -14 179 -38z
" />
    <glyph glyph-name="D" unicode="D" horiz-adv-x="752" 
d="M64 0v754h278c210 0 383 -165 383 -377s-174 -377 -383 -377h-278zM260 588v-422h44c117 0 217 64 217 211c0 135 -89 211 -215 211h-46z" />
    <glyph glyph-name="E" unicode="E" horiz-adv-x="550" 
d="M493 588h-233v-126h221v-166h-221v-130h233v-166h-429v754h429v-166z" />
    <glyph glyph-name="F" unicode="F" horiz-adv-x="542" 
d="M497 588h-237v-126h215v-166h-215v-296h-196v754h433v-166z" />
    <glyph glyph-name="G" unicode="G" horiz-adv-x="842" 
d="M427 421h389c-2 -110 -10 -204 -77 -298c-74 -103 -185 -148 -311 -148c-237 0 -402 161 -402 398c0 245 166 406 409 406c155 0 275 -70 340 -211l-186 -78c-27 72 -84 120 -163 120c-129 0 -196 -123 -196 -238c0 -117 70 -236 199 -236c85 0 150 44 158 131h-160v154z
" />
    <glyph glyph-name="H" unicode="H" horiz-adv-x="803" 
d="M260 463h283v291h196v-754h-196v309h-283v-309h-196v754h196v-291z" />
    <glyph glyph-name="I" unicode="I" horiz-adv-x="324" 
d="M260 754v-754h-196v754h196z" />
    <glyph glyph-name="J" unicode="J" horiz-adv-x="489" 
d="M233 754h196v-509c0 -159 -83 -265 -250 -265c-84 0 -149 42 -194 111l113 119c22 -30 53 -64 79 -64c58 0 56 69 56 111v497z" />
    <glyph glyph-name="K" unicode="K" horiz-adv-x="758" 
d="M262 443l237 311h243l-300 -357l327 -397h-254l-253 327h-2v-327h-196v754h196v-311h2z" />
    <glyph glyph-name="L" unicode="L" horiz-adv-x="495" 
d="M260 754v-588h235v-166h-431v754h196z" />
    <glyph glyph-name="M" unicode="M" horiz-adv-x="983" 
d="M19 0l128 754h193l153 -403l162 403h195l114 -754h-196l-55 434h-2l-181 -434h-78l-173 434h-2l-63 -434h-195z" />
    <glyph glyph-name="N" unicode="N" horiz-adv-x="881" 
d="M64 0v754h196l359 -461h2v461h196v-754h-196l-359 462h-2v-462h-196z" />
    <glyph glyph-name="O" unicode="O" horiz-adv-x="887" 
d="M443 779c217 0 417 -160 417 -388c0 -244 -175 -416 -417 -416s-417 172 -417 416c0 228 200 388 417 388zM443 589c-117 0 -213 -95 -213 -199c0 -130 96 -225 213 -225s213 95 213 225c0 104 -96 199 -213 199z" />
    <glyph glyph-name="P" unicode="P" horiz-adv-x="661" 
d="M64 0v754h300c162 0 274 -75 274 -248c0 -178 -96 -256 -267 -256h-111v-250h-196zM260 596v-188h33c71 0 141 0 141 92c0 95 -65 96 -141 96h-33z" />
    <glyph glyph-name="Q" unicode="Q" horiz-adv-x="887" 
d="M568 318l53 -55c23 32 35 73 35 111c0 113 -94 215 -212 215c-117 0 -214 -95 -214 -199c0 -130 97 -225 214 -225c20 0 40 3 60 10l-121 120zM890 -19l-180 -28l-60 71c-58 -35 -126 -49 -207 -49c-242 0 -417 172 -417 416c0 228 200 388 417 388
c235 0 417 -159 417 -404c0 -100 -34 -187 -97 -265z" />
    <glyph glyph-name="R" unicode="R" horiz-adv-x="680" 
d="M454 309l237 -309h-244l-185 290h-2v-290h-196v754h293c149 0 262 -71 262 -232c0 -104 -58 -194 -165 -213zM260 604v-188h19c64 0 136 12 136 94s-72 94 -136 94h-19z" />
    <glyph glyph-name="S" unicode="S" horiz-adv-x="616" 
d="M556 712l-78 -152c-36 30 -82 50 -130 50c-36 0 -84 -21 -84 -63c0 -44 53 -61 87 -72l50 -15c105 -31 186 -84 186 -206c0 -75 -18 -152 -78 -203c-59 -50 -138 -71 -214 -71c-95 0 -188 32 -265 86l84 158c49 -43 107 -78 174 -78c46 0 95 23 95 76
c0 55 -77 74 -119 86c-123 35 -204 67 -204 213c0 153 109 253 260 253c76 0 169 -24 236 -62z" />
    <glyph glyph-name="T" unicode="T" horiz-adv-x="533" 
d="M364 588v-588h-196v588h-162v166h520v-166h-162z" />
    <glyph glyph-name="U" unicode="U" horiz-adv-x="778" 
d="M522 754h196v-424c0 -97 -4 -193 -79 -266c-63 -62 -162 -84 -250 -84s-187 22 -250 84c-75 73 -79 169 -79 266v424h196v-397c0 -98 7 -205 133 -205s133 107 133 205v397z" />
    <glyph glyph-name="V" unicode="V" horiz-adv-x="761" 
d="M198 754l182 -458l183 458h213l-322 -754h-152l-317 754h213z" />
    <glyph glyph-name="W" unicode="W" horiz-adv-x="1117" 
d="M189 754l131 -487h2l158 487h156l148 -487h2l142 487h204l-241 -754h-200l-132 437h-2l-148 -437h-199l-225 754h204z" />
    <glyph glyph-name="X" unicode="X" horiz-adv-x="789" 
d="M287 403l-241 351h241l115 -195l115 195h241l-241 -351l279 -403h-236l-158 246l-173 -246h-237z" />
    <glyph glyph-name="Y" unicode="Y" horiz-adv-x="714" 
d="M259 362l-278 392h235l141 -205l141 205h235l-278 -392v-362h-196v362z" />
    <glyph glyph-name="Z" unicode="Z" horiz-adv-x="707" 
d="M341 166h316v-166h-646l357 588h-296v166h624z" />
    <glyph glyph-name="bracketleft" unicode="[" horiz-adv-x="350" 
d="M191 684v-818h107v-106h-246v1030h246v-106h-107z" />
    <glyph glyph-name="backslash" unicode="\" horiz-adv-x="579" 
d="M27 830h144l381 -830h-142z" />
    <glyph glyph-name="bracketright" unicode="]" horiz-adv-x="350" 
d="M159 -134v818h-107v106h246v-1030h-246v106h107z" />
    <glyph glyph-name="asciicircum" unicode="^" 
d="M217 340l-114 67l180 377h120l180 -377l-114 -67l-126 269z" />
    <glyph glyph-name="underscore" unicode="_" horiz-adv-x="500" 
d="M500 -125h-500v50h500v-50z" />
    <glyph glyph-name="quoteleft" unicode="&#x2018;" horiz-adv-x="372" 
d="M189 423h-170l184 331h116z" />
    <glyph glyph-name="a" unicode="a" horiz-adv-x="682" 
d="M328 372c-74 0 -117 -53 -117 -116c0 -65 43 -115 117 -115s117 50 117 115c0 63 -43 116 -117 116zM621 513v-513h-182v57h-2c-32 -51 -95 -74 -155 -74c-152 0 -259 127 -259 274s105 273 257 273c59 0 121 -22 159 -67v50h182z" />
    <glyph glyph-name="b" unicode="b" horiz-adv-x="682" 
d="M54 0v830h182v-367c39 45 100 67 159 67c152 0 257 -126 257 -273c0 -148 -106 -274 -259 -274c-60 0 -122 23 -155 74h-2v-57h-182zM347 372c-74 0 -117 -53 -117 -116c0 -65 43 -115 117 -115s117 50 117 115c0 63 -43 116 -117 116z" />
    <glyph glyph-name="c" unicode="c" horiz-adv-x="483" 
d="M430 500v-154c-27 20 -59 36 -94 36c-70 0 -125 -54 -125 -125c0 -74 53 -126 128 -126c32 0 67 13 91 35v-154c-40 -20 -84 -29 -128 -29c-152 0 -279 113 -279 268c0 165 126 279 287 279c42 0 84 -10 120 -30z" />
    <glyph glyph-name="d" unicode="d" horiz-adv-x="682" 
d="M446 0v57h-2c-32 -51 -95 -74 -155 -74c-152 0 -259 127 -259 274s105 273 257 273c59 0 121 -22 159 -67v367h182v-830h-182zM335 372c-74 0 -117 -53 -117 -116c0 -65 43 -115 117 -115s117 50 117 115c0 63 -43 116 -117 116z" />
    <glyph glyph-name="e" unicode="e" horiz-adv-x="610" 
d="M207 331h211c-9 49 -54 81 -103 81c-53 0 -97 -28 -108 -81zM587 245v-19h-383c0 -74 39 -114 114 -114c39 0 67 13 87 47h175c-14 -60 -50 -104 -97 -133s-105 -43 -164 -43c-170 0 -297 96 -297 273c0 171 117 274 284 274c178 0 281 -110 281 -285z" />
    <glyph glyph-name="f" unicode="f" horiz-adv-x="388" 
d="M260 363v-363h-182v363h-64v150h64v65c0 71 2 123 52 180c45 53 110 82 179 82c28 0 53 -5 78 -18v-157c-21 9 -40 17 -64 17c-47 0 -63 -28 -63 -86v-83h127v-150h-127z" />
    <glyph glyph-name="g" unicode="g" horiz-adv-x="677" 
d="M623 513v-463c0 -218 -108 -306 -297 -306c-118 0 -276 61 -292 196h204c5 -18 18 -31 34 -39s35 -12 52 -12c98 0 117 64 117 147v24c-47 -47 -95 -70 -163 -70c-150 0 -253 114 -253 262c0 150 106 278 263 278c60 0 115 -20 151 -71h2v54h182zM330 376
c-74 0 -117 -53 -117 -116c0 -65 43 -115 117 -115s117 50 117 115c0 63 -43 116 -117 116z" />
    <glyph glyph-name="h" unicode="h" horiz-adv-x="661" 
d="M60 830h182v-382h2c42 56 93 82 164 82c130 0 193 -86 193 -216v-314h-182v263c0 60 -9 122 -82 122c-72 0 -95 -62 -95 -122v-263h-182v830z" />
    <glyph glyph-name="i" unicode="i" horiz-adv-x="302" 
d="M242 513v-513h-182v513h182zM151 812c56 0 102 -46 102 -102s-46 -102 -102 -102s-102 46 -102 102s46 102 102 102z" />
    <glyph glyph-name="j" unicode="j" horiz-adv-x="302" 
d="M242 513v-769h-182v769h182zM151 812c56 0 102 -46 102 -102s-46 -102 -102 -102s-102 46 -102 102s46 102 102 102z" />
    <glyph glyph-name="k" unicode="k" horiz-adv-x="688" 
d="M242 830v-502l189 185h249l-257 -237l273 -276h-255l-199 209v-209h-182v830h182z" />
    <glyph glyph-name="l" unicode="l" horiz-adv-x="302" 
d="M242 830v-830h-182v830h182z" />
    <glyph glyph-name="m" unicode="m" horiz-adv-x="989" 
d="M242 513v-64h2c43 57 96 81 162 81c74 0 138 -30 175 -98c35 64 104 98 174 98c130 0 175 -85 175 -203v-327h-182v245c0 53 2 140 -75 140c-84 0 -87 -79 -87 -140v-245h-182v245c0 57 0 144 -81 144s-81 -87 -81 -144v-245h-182v513h182z" />
    <glyph glyph-name="n" unicode="n" horiz-adv-x="661" 
d="M242 513v-66h2c42 62 93 83 164 83c138 0 193 -87 193 -213v-317h-182v250c0 49 8 135 -82 135c-74 0 -95 -55 -95 -119v-266h-182v513h182z" />
    <glyph glyph-name="o" unicode="o" horiz-adv-x="662" 
d="M331 530c165 0 309 -99 309 -274c0 -174 -144 -273 -309 -273c-164 0 -309 98 -309 273s144 274 309 274zM331 372c-74 0 -117 -53 -117 -116c0 -65 43 -115 117 -115s117 50 117 115c0 63 -43 116 -117 116z" />
    <glyph glyph-name="p" unicode="p" horiz-adv-x="682" 
d="M236 513v-58h2c33 51 95 75 155 75c153 0 259 -128 259 -275c0 -148 -105 -272 -257 -272c-59 0 -120 21 -159 66v-305h-182v769h182zM347 372c-74 0 -117 -53 -117 -116c0 -65 43 -115 117 -115s117 50 117 115c0 63 -43 116 -117 116z" />
    <glyph glyph-name="q" unicode="q" horiz-adv-x="682" 
d="M628 513v-769h-182v305c-38 -45 -100 -66 -159 -66c-153 0 -257 124 -257 272c0 146 107 275 259 275c60 0 123 -24 155 -75h2v58h182zM335 372c-74 0 -117 -53 -117 -116c0 -65 43 -115 117 -115s117 50 117 115c0 63 -43 116 -117 116z" />
    <glyph glyph-name="r" unicode="r" horiz-adv-x="453" 
d="M242 513v-84h2c35 63 95 91 166 91h35v-175c-25 14 -49 17 -77 17c-101 0 -126 -67 -126 -155v-207h-182v513h182z" />
    <glyph glyph-name="s" unicode="s" horiz-adv-x="513" 
d="M460 497l-61 -116c-28 15 -67 25 -98 25c-21 0 -57 -9 -57 -35c0 -35 57 -40 82 -45c85 -17 149 -57 149 -152c0 -135 -123 -191 -242 -191c-73 0 -145 21 -207 59l66 127c37 -26 99 -52 144 -52c23 0 57 11 57 39c0 40 -57 42 -114 57s-114 43 -114 135
c0 126 114 182 226 182c58 0 116 -9 169 -33z" />
    <glyph glyph-name="t" unicode="t" horiz-adv-x="360" 
d="M259 363v-363h-182v363h-59v150h59v154h182v-154h103v-150h-103z" />
    <glyph glyph-name="u" unicode="u" horiz-adv-x="659" 
d="M57 513h182v-274c0 -65 16 -111 91 -111s91 46 91 111v274h182v-309c0 -169 -119 -221 -273 -221s-273 52 -273 221v309z" />
    <glyph glyph-name="v" unicode="v" horiz-adv-x="623" 
d="M189 513l123 -263l122 263h204l-268 -513h-116l-269 513h204z" />
    <glyph glyph-name="w" unicode="w" horiz-adv-x="996" 
d="M187 513l128 -278l129 278h108l129 -278l129 278h201l-268 -513h-118l-127 281l-127 -281h-118l-268 513h202z" />
    <glyph glyph-name="x" unicode="x" horiz-adv-x="712" 
d="M241 278l-208 235h231l92 -106l92 106h235l-212 -235l256 -278h-239l-132 152l-132 -152h-239z" />
    <glyph glyph-name="y" unicode="y" horiz-adv-x="654" 
d="M233 70l-248 443h210l137 -263l134 263h207l-411 -769h-204z" />
    <glyph glyph-name="z" unicode="z" horiz-adv-x="559" 
d="M312 151h216v-151h-520l241 362h-209v151h512z" />
    <glyph glyph-name="braceleft" unicode="{" horiz-adv-x="352" 
d="M36 227v104c20 0 70 -4 70 53v253c0 107 77 153 113 153h97v-120h-25c-46 0 -46 -31 -46 -59v-225c0 -85 -65 -101 -96 -106v-2c31 -4 96 -11 96 -117v-222c0 -29 0 -59 46 -59h25v-120h-97c-36 0 -113 46 -113 151v253c0 70 -50 63 -70 63z" />
    <glyph glyph-name="bar" unicode="|" horiz-adv-x="579" 
d="M365 786v-1000h-150v1000h150z" />
    <glyph glyph-name="braceright" unicode="}" horiz-adv-x="352" 
d="M316 331v-104c-20 0 -70 7 -70 -63v-253c0 -105 -77 -151 -113 -151h-97v120h25c46 0 46 30 46 59v222c0 106 65 113 96 117v2c-31 5 -96 21 -96 106v225c0 28 0 59 -46 59h-25v120h97c36 0 113 -46 113 -153v-253c0 -57 50 -53 70 -53z" />
    <glyph glyph-name="asciitilde" unicode="~" 
d="M523 373l114 -97c-35 -59 -92 -156 -175 -156c-49 0 -88 28 -123 48c-45 26 -82 58 -112 58c-26 0 -51 -52 -65 -84l-113 96c42 52 94 157 176 157c41 0 90 -27 128 -56c32 -25 78 -50 108 -50c27 0 52 57 62 84z" />
    <glyph glyph-name="exclamdown" unicode="&#xa1;" horiz-adv-x="384" 
d="M192 532c65 0 117 -52 117 -117c0 -64 -52 -117 -117 -117s-117 53 -117 117c0 65 52 117 117 117zM98 255h189v-498h-189v498z" />
    <glyph glyph-name="cent" unicode="&#xa2;" 
d="M394 10v99c-140 6 -253 128 -253 268c0 150 105 259 253 273v93h93v-99l58 -17v-163c-24 23 -54 38 -88 38c-71 0 -126 -50 -126 -122c0 -68 51 -123 120 -123c35 0 71 11 94 38v-163c-19 -7 -38 -14 -58 -16v-106h-93z" />
    <glyph glyph-name="sterling" unicode="&#xa3;" 
d="M478 300h-142c12 -33 13 -99 0 -134l11 -4c39 -14 107 -34 148 -34c31 0 51 18 51 49h122c-4 -55 -20 -103 -51 -138c-30 -34 -74 -55 -133 -55c-49 0 -91 15 -138 28c-35 10 -91 25 -127 25c-25 0 -56 -10 -63 -37h-130c16 85 78 176 172 177c20 43 6 86 -18 123h-161
v76h108c-23 37 -36 82 -36 128c0 72 29 141 81 191c58 56 133 73 211 73c198 0 276 -88 278 -284h-194v35c0 50 -40 95 -91 95c-61 0 -95 -49 -95 -106c0 -49 15 -94 41 -132h156v-76z" />
    <glyph glyph-name="fraction" unicode="&#x2044;" horiz-adv-x="194" 
d="M267 754h98l-438 -754h-98z" />
    <glyph glyph-name="yen" unicode="&#xa5;" 
d="M633 446h-142l-56 -84h198v-76h-198v-286h-184v286h-200v76h199l-57 84h-142v76h92l-154 232h222l132 -205l132 205h222l-155 -232h91v-76z" />
    <glyph glyph-name="florin" unicode="&#x192;" 
d="M471 505h110l-13 -76h-110l-51 -279c-15 -86 -31 -165 -85 -235c-59 -76 -130 -104 -222 -96l-106 9l30 165c23 -4 47 -9 71 -9c53 0 82 18 103 68c16 40 26 100 34 144l42 233h-86l12 76h88l20 108c11 57 22 104 62 148c43 48 98 69 162 69c45 0 92 -8 130 -34l-29 -157
c-22 16 -51 30 -78 30c-58 0 -66 -65 -74 -109z" />
    <glyph glyph-name="section" unicode="&#xa7;" 
d="M285 270l167 -83c15 12 26 35 26 54c0 40 -42 60 -73 75l-164 83c-19 -11 -31 -32 -31 -54c0 -42 43 -59 75 -75zM563 589h-157c-8 35 -34 60 -71 60c-30 0 -56 -19 -56 -51c0 -50 55 -69 93 -88l111 -56c83 -41 147 -78 147 -182c0 -64 -35 -118 -84 -157
c35 -31 51 -84 51 -130c0 -145 -130 -215 -261 -215c-139 0 -284 76 -277 233h183c-2 -52 49 -91 98 -91c41 0 76 24 76 67c0 47 -49 65 -84 82l-158 77c-69 34 -117 84 -117 165c0 65 38 123 86 163c-29 28 -45 78 -45 117c0 127 113 191 228 191c119 0 231 -52 237 -185z
" />
    <glyph glyph-name="currency" unicode="&#xa4;" 
d="M49 152l66 66c-31 41 -50 98 -50 160s17 125 50 165l-66 67l62 63l67 -67c42 32 106 52 168 52c61 0 122 -20 160 -52l67 67l62 -62l-62 -63c32 -43 54 -106 54 -168s-22 -123 -56 -161l66 -66l-60 -65l-67 66c-40 -34 -102 -54 -164 -54c-65 0 -126 19 -169 55l-66 -66z
M346 508c-75 0 -131 -59 -131 -133c0 -76 57 -125 131 -125s131 49 131 125c0 74 -56 133 -131 133z" />
    <glyph glyph-name="quotesingle" unicode="'" horiz-adv-x="250" 
d="M40 754h170l-27 -331h-116z" />
    <glyph glyph-name="quotedblleft" unicode="&#x201c;" horiz-adv-x="628" 
d="M445 423h-170l184 331h116zM189 423h-170l184 331h116z" />
    <glyph glyph-name="guillemotleft" unicode="&#xab;" horiz-adv-x="603" 
d="M421 320l129 -174l-103 -72l-172 246l172 246l100 -69zM172 320l129 -174l-103 -72l-172 246l172 246l100 -69z" />
    <glyph glyph-name="guilsinglleft" unicode="&#x2039;" horiz-adv-x="354" 
d="M172 320l129 -174l-103 -72l-172 246l172 246l100 -69z" />
    <glyph glyph-name="guilsinglright" unicode="&#x203a;" horiz-adv-x="354" 
d="M53 146l129 174l-126 177l100 69l172 -246l-172 -246z" />
    <glyph glyph-name="endash" unicode="&#x2013;" horiz-adv-x="500" 
d="M0 396h500v-150h-500v150z" />
    <glyph glyph-name="dagger" unicode="&#x2020;" 
d="M260 754h166v-205h177v-144h-177v-585h-166v585h-176v144h176v205z" />
    <glyph glyph-name="daggerdbl" unicode="&#x2021;" 
d="M261 754h166v-185h176v-144h-176v-142h176v-144h-176v-318h-166v318h-177v144h177v142h-177v144h177v185z" />
    <glyph glyph-name="periodcentered" unicode="&#xb7;" horiz-adv-x="343" 
d="M172 373c65 0 117 -52 117 -117c0 -64 -52 -117 -117 -117s-117 53 -117 117c0 65 52 117 117 117z" />
    <glyph glyph-name="paragraph" unicode="&#xb6;" 
d="M263 754h377v-91h-66v-833h-101v832h-93v-832h-101v460c-116 11 -214 60 -231 215c-13 121 97 249 215 249z" />
    <glyph glyph-name="bullet" unicode="&#x2022;" 
d="M344 566c108 0 188 -85 188 -189c0 -103 -80 -188 -188 -188s-189 85 -189 188c0 104 81 189 189 189z" />
    <glyph glyph-name="quotesinglbase" unicode="&#x201a;" horiz-adv-x="338" 
d="M149 191h170l-184 -331h-116z" />
    <glyph glyph-name="quotedblbase" unicode="&#x201e;" horiz-adv-x="594" 
d="M149 191h170l-184 -331h-116zM405 191h170l-184 -331h-116z" />
    <glyph glyph-name="quotedblright" unicode="&#x201d;" horiz-adv-x="628" 
d="M183 754h170l-184 -331h-116zM439 754h170l-184 -331h-116z" />
    <glyph glyph-name="guillemotright" unicode="&#xbb;" horiz-adv-x="603" 
d="M53 146l129 174l-126 177l100 69l172 -246l-172 -246zM302 146l129 174l-126 177l100 69l172 -246l-172 -246z" />
    <glyph glyph-name="ellipsis" unicode="&#x2026;" horiz-adv-x="1000" 
d="M500 214c65 0 117 -52 117 -117c0 -64 -52 -117 -117 -117s-117 53 -117 117c0 65 52 117 117 117zM833 214c65 0 117 -52 117 -117c0 -64 -52 -117 -117 -117s-117 53 -117 117c0 65 52 117 117 117zM167 214c65 0 117 -52 117 -117c0 -64 -52 -117 -117 -117
s-117 53 -117 117c0 65 52 117 117 117z" />
    <glyph glyph-name="perthousand" unicode="&#x2030;" horiz-adv-x="1460" 
d="M225 764c112 0 206 -63 206 -183c0 -122 -91 -186 -206 -186s-206 64 -206 186c0 120 94 183 206 183zM225 664c-47 0 -85 -38 -85 -85s38 -84 85 -84s85 37 85 84s-38 85 -85 85zM750 359c112 0 206 -63 206 -183c0 -122 -91 -186 -206 -186s-206 64 -206 186
c0 120 94 183 206 183zM750 259c-47 0 -85 -38 -85 -85s38 -84 85 -84s85 37 85 84s-38 85 -85 85zM1235 359c112 0 206 -63 206 -183c0 -122 -91 -186 -206 -186s-206 64 -206 186c0 120 94 183 206 183zM1235 259c-47 0 -85 -38 -85 -85s38 -84 85 -84s85 37 85 84
s-38 85 -85 85zM657 754h98l-438 -754h-98z" />
    <glyph glyph-name="questiondown" unicode="&#xbf;" horiz-adv-x="595" 
d="M409 258v-194c-14 3 -28 5 -42 5c-57 0 -129 -33 -129 -99c0 -41 31 -75 73 -75c46 0 70 33 70 76h199c-1 -152 -133 -235 -274 -235c-63 0 -126 20 -175 62c-50 42 -86 107 -86 173c0 113 79 184 181 216v71h183zM314 532c65 0 117 -52 117 -117
c0 -64 -52 -117 -117 -117s-117 53 -117 117c0 65 52 117 117 117z" />
    <glyph glyph-name="grave" unicode="`" horiz-adv-x="402" 
d="M75 740l111 80l141 -172l-81 -59z" />
    <glyph glyph-name="acute" unicode="&#xb4;" horiz-adv-x="402" 
d="M327 740l-171 -151l-81 59l141 172z" />
    <glyph glyph-name="circumflex" unicode="&#x2c6;" horiz-adv-x="590" 
d="M75 665l218 164l221 -164l-77 -84l-144 111l-144 -111z" />
    <glyph glyph-name="tilde" unicode="&#x2dc;" horiz-adv-x="549" 
d="M158 616h-82l-1 11c0 32 6 62 22 89c18 31 52 56 89 56c51 0 123 -34 163 -34c25 0 32 15 40 36h85c-6 -72 -45 -158 -130 -158c-51 0 -105 37 -152 37c-24 0 -28 -18 -34 -37z" />
    <glyph glyph-name="macron" unicode="&#xaf;" horiz-adv-x="603" 
d="M75 752h452v-107h-452v107z" />
    <glyph glyph-name="breve" unicode="&#x2d8;" horiz-adv-x="539" 
d="M75 784h112c7 -43 39 -67 82 -67c44 0 76 24 83 67h111c-6 -110 -87 -169 -194 -169s-188 59 -194 169z" />
    <glyph glyph-name="dotaccent" unicode="&#x2d9;" horiz-adv-x="402" 
d="M202 800c54 0 98 -44 98 -98c0 -55 -44 -98 -98 -98c-55 0 -99 43 -99 98c0 54 44 98 99 98z" />
    <glyph glyph-name="dieresis" unicode="&#xa8;" horiz-adv-x="604" 
d="M174 800c54 0 98 -44 98 -98c0 -55 -44 -98 -98 -98c-55 0 -99 43 -99 98c0 54 44 98 99 98zM430 800c54 0 98 -44 98 -98c0 -55 -44 -98 -98 -98c-55 0 -99 43 -99 98c0 54 44 98 99 98z" />
    <glyph glyph-name="ring" unicode="&#x2da;" horiz-adv-x="457" 
d="M227 815c75 0 155 -28 155 -115c0 -85 -78 -115 -152 -115s-155 27 -155 114c0 86 77 116 152 116zM229 743c-28 0 -59 -11 -59 -43s31 -43 59 -43c27 0 58 11 58 43s-31 43 -58 43z" />
    <glyph glyph-name="cedilla" unicode="&#xb8;" horiz-adv-x="380" 
d="M304 -94l-151 -143l-78 49l130 158z" />
    <glyph glyph-name="hungarumlaut" unicode="&#x2dd;" horiz-adv-x="539" 
d="M254 814l-50 -214h-93l14 214h129zM428 814l-50 -214h-93l14 214h129z" />
    <glyph glyph-name="ogonek" unicode="&#x2db;" horiz-adv-x="350" 
d="M159 0h75v-2c-25 -14 -60 -42 -60 -74c0 -25 21 -46 46 -46c20 0 37 9 54 19l-22 -92c-21 -13 -55 -19 -80 -19c-47 0 -97 36 -97 86c0 55 39 101 84 128z" />
    <glyph glyph-name="caron" unicode="&#x2c7;" horiz-adv-x="590" 
d="M75 744l74 85l144 -112l144 112l77 -85l-221 -163z" />
    <glyph glyph-name="emdash" unicode="&#x2014;" horiz-adv-x="1000" 
d="M130 396h740v-150h-740v150z" />
    <glyph glyph-name="AE" unicode="&#xc6;" horiz-adv-x="1026" 
d="M470 281l-81 224l-85 -224h166zM572 0l-49 131h-273l-47 -131h-207l291 754h462l61 -166h-248l46 -126h247l63 -166h-249l49 -130h248l60 -166h-454z" />
    <glyph glyph-name="ordfeminine" unicode="&#xaa;" horiz-adv-x="409" 
d="M209 540c42 0 76 31 76 70s-34 70 -76 70s-76 -31 -76 -70s34 -70 76 -70zM281 456v34h-2c-20 -30 -61 -44 -100 -44c-99 0 -168 76 -168 164c0 89 68 164 167 164c38 0 78 -13 103 -40v30h118v-308h-118z" />
    <glyph glyph-name="Lslash" unicode="&#x141;" horiz-adv-x="533" 
d="M19 233v142l83 53v326h196v-200l113 72v-146l-113 -71v-243h235v-166h-431v285z" />
    <glyph glyph-name="Oslash" unicode="&#xd8;" horiz-adv-x="887" 
d="M260 275l290 285c-31 18 -68 29 -107 29c-117 0 -213 -95 -213 -199c0 -43 10 -82 30 -115zM630 481l-293 -287c31 -19 67 -29 106 -29c117 0 213 95 213 225c0 33 -9 64 -26 91zM21 40l90 89c-54 70 -85 159 -85 262c0 228 200 388 417 388c91 0 178 -28 250 -78l95 93
l78 -80l-90 -89c52 -62 84 -143 84 -234c0 -244 -175 -416 -417 -416c-96 0 -182 27 -251 77l-93 -92z" />
    <glyph glyph-name="OE" unicode="&#x152;" horiz-adv-x="1140" 
d="M660 0v83c-68 -74 -143 -108 -240 -108c-216 0 -394 188 -394 402s178 402 394 402c97 0 177 -31 240 -94v69h424v-166h-229v-126h213v-166h-213v-130h229v-166h-424zM441 589c-116 0 -211 -95 -211 -212c0 -116 95 -212 211 -212c117 0 210 96 210 212
c0 117 -93 212 -210 212z" />
    <glyph glyph-name="ordmasculine" unicode="&#xba;" horiz-adv-x="410" 
d="M205 774c107 0 201 -59 201 -164s-94 -164 -201 -164s-200 59 -200 164s93 164 200 164zM205 679c-42 0 -75 -31 -75 -69c0 -39 33 -69 75 -69s76 30 76 69c0 38 -34 69 -76 69z" />
    <glyph glyph-name="ae" unicode="&#xe6;" horiz-adv-x="940" 
d="M541 331h211c-9 49 -54 81 -103 81c-53 0 -97 -28 -108 -81zM274 218c-33 0 -76 -15 -76 -55c0 -42 48 -55 82 -55c30 0 91 13 91 54c0 45 -63 56 -97 56zM918 226h-383c0 -74 39 -114 114 -114c39 0 67 13 87 47h175c-14 -60 -50 -104 -97 -133s-105 -43 -164 -43
c-79 0 -172 24 -206 101c-49 -63 -128 -101 -208 -101c-98 0 -215 52 -215 165c0 122 103 171 211 171c49 0 89 -7 135 -26v15c0 71 -61 90 -122 90c-51 0 -96 -13 -143 -28v136c48 13 99 24 149 24c73 0 157 -21 193 -91c41 62 121 91 193 91c178 0 281 -110 281 -285v-19z
" />
    <glyph glyph-name="dotlessi" unicode="&#x131;" horiz-adv-x="302" 
d="M242 513v-513h-182v513h182z" />
    <glyph glyph-name="lslash" unicode="&#x142;" horiz-adv-x="366" 
d="M92 0v331l-84 -51v124l84 52v374h182v-266l84 51v-125l-84 -51v-439h-182z" />
    <glyph glyph-name="oslash" unicode="&#xf8;" horiz-adv-x="662" 
d="M221 214l153 151c-12 4 -27 7 -43 7c-74 0 -117 -53 -117 -116c0 -15 2 -30 7 -42zM441 299l-153 -151c13 -5 27 -7 43 -7c74 0 117 50 117 115c0 15 -2 29 -7 43zM21 16l66 65c-41 45 -65 104 -65 175c0 175 144 274 309 274c61 0 120 -14 169 -40l71 70l70 -62l-66 -66
c40 -45 65 -104 65 -176c0 -174 -144 -273 -309 -273c-61 0 -119 13 -169 40l-71 -70z" />
    <glyph glyph-name="oe" unicode="&#x153;" horiz-adv-x="1022" 
d="M618 331h211c-9 49 -54 81 -103 81c-53 0 -97 -28 -108 -81zM330 372c-64 0 -117 -53 -117 -116c0 -65 53 -115 117 -115s117 50 117 115c0 63 -53 116 -117 116zM1001 245v-19h-383c0 -74 39 -114 114 -114c39 0 67 13 87 47h175c-14 -60 -50 -104 -97 -133
s-105 -43 -164 -43c-91 0 -161 23 -208 89c-59 -66 -119 -89 -208 -89c-168 0 -296 97 -296 273c0 172 128 274 294 274c85 0 148 -18 210 -77c45 59 124 77 195 77c178 0 281 -110 281 -285z" />
    <glyph glyph-name="germandbls" unicode="&#xdf;" horiz-adv-x="651" 
d="M60 442v147c0 68 8 137 62 185c52 48 128 66 198 66c136 0 249 -75 249 -221c0 -72 -33 -115 -89 -157c98 -39 149 -94 149 -213c0 -70 -26 -154 -80 -200c-57 -50 -142 -66 -215 -66h-39v155c76 -3 135 43 135 121c0 76 -62 127 -135 122v145c56 -2 99 21 99 81
c0 47 -29 76 -76 76c-73 0 -76 -58 -76 -114v-569h-182v297h-52v145h52z" />
    <glyph glyph-name="onesuperior" unicode="&#xb9;" horiz-adv-x="412" 
d="M163 667h-70v99h197v-452h-127v353z" />
    <glyph glyph-name="logicalnot" unicode="&#xac;" 
d="M449 141v161h-362v150h512v-311h-150z" />
    <glyph glyph-name="mu" unicode="&#xb5;" horiz-adv-x="659" 
d="M57 513h182v-274c0 -65 16 -111 91 -111s91 46 91 111v274h182v-309c0 -174 -139 -221 -233 -221c-64 0 -108 27 -131 49v-288h-182v769z" />
    <glyph glyph-name="trademark" unicode="&#x2122;" horiz-adv-x="940" 
d="M899 754v-404h-88v326h-2l-117 -326h-52l-117 326h-2v-326h-88v404h142l91 -239l91 239h142zM384 754v-78h-123v-326h-97v326h-123v78h343z" />
    <glyph glyph-name="Eth" unicode="&#xd0;" horiz-adv-x="752" 
d="M260 588v-125h110v-154h-110v-143h44c117 0 217 64 217 211c0 135 -89 211 -215 211h-46zM64 0v309h-84v154h84v291h254c238 0 407 -158 407 -377c0 -221 -177 -377 -405 -377h-256z" />
    <glyph glyph-name="onehalf" unicode="&#xbd;" horiz-adv-x="1029" 
d="M170 655h-70v99h197v-452h-127v353zM845 165l-76 -66h160v-99h-394l201 201c28 28 56 69 56 111c0 28 -23 58 -56 58c-35 0 -54 -24 -54 -55c0 -6 1 -12 2 -19h-140c2 52 21 96 54 126c32 31 79 48 137 48c103 0 189 -62 189 -161c0 -65 -29 -102 -79 -144zM617 754h98
l-438 -754h-98z" />
    <glyph glyph-name="plusminus" unicode="&#xb1;" 
d="M268 512v142h150v-142h181v-150h-181v-142h-150v142h-181v150h181zM87 150h512v-150h-512v150z" />
    <glyph glyph-name="Thorn" unicode="&#xde;" horiz-adv-x="661" 
d="M64 0v754h196v-120h104c162 0 274 -75 274 -248c0 -178 -96 -256 -267 -256h-111v-130h-196zM260 476v-188h33c71 0 141 0 141 92c0 95 -65 96 -141 96h-33z" />
    <glyph glyph-name="onequarter" unicode="&#xbc;" horiz-adv-x="1029" 
d="M752 183v174h-2l-114 -174h116zM645 754h98l-438 -754h-98zM170 655h-70v99h197v-452h-127v353zM870 184h59v-90h-59v-94h-118v94h-238v75l189 283h167v-268z" />
    <glyph glyph-name="divide" unicode="&#xf7;" 
d="M87 332h512v-150h-512v150zM343 127c40 0 72 -32 72 -72s-32 -72 -72 -72s-72 32 -72 72s32 72 72 72zM343 531c40 0 72 -32 72 -72s-32 -72 -72 -72s-72 32 -72 72s32 72 72 72z" />
    <glyph glyph-name="brokenbar" unicode="&#xa6;" horiz-adv-x="579" 
d="M365 161v-250h-150v250h150zM365 661v-250h-150v250h150z" />
    <glyph glyph-name="degree" unicode="&#xb0;" horiz-adv-x="400" 
d="M350 623c0 -82 -69 -149 -151 -149c-84 0 -149 67 -149 149c-2 83 65 151 149 151c82 0 151 -68 151 -151zM265 624c0 35 -29 65 -66 65c-35 0 -65 -30 -64 -65c0 -36 29 -65 65 -65s65 29 65 65z" />
    <glyph glyph-name="thorn" unicode="&#xfe;" horiz-adv-x="682" 
d="M236 830v-375h2c33 51 95 75 155 75c153 0 259 -128 259 -275c0 -148 -105 -272 -257 -272c-59 0 -120 21 -159 66v-305h-182v1086h182zM347 372c-74 0 -117 -53 -117 -116c0 -65 43 -115 117 -115s117 50 117 115c0 63 -43 116 -117 116z" />
    <glyph glyph-name="threequarters" unicode="&#xbe;" horiz-adv-x="1029" 
d="M802 183v174h-2l-114 -174h116zM731 754h98l-438 -754h-98zM920 184h59v-90h-59v-94h-118v94h-238v75l189 283h167v-268zM226 563h13c33 0 56 19 56 50c0 27 -21 45 -50 45c-32 0 -52 -23 -52 -52h-118c5 47 25 84 57 109c32 26 75 39 125 39c88 0 157 -47 157 -131
c0 -36 -16 -74 -52 -93c52 -12 80 -68 80 -114c0 -98 -93 -149 -190 -149c-56 0 -107 14 -146 51c-30 27 -58 74 -56 113h130c0 -18 7 -34 19 -45s29 -18 49 -18c39 0 68 23 68 60c0 34 -32 60 -67 60c-8 0 -15 -2 -23 -3v78z" />
    <glyph glyph-name="twosuperior" unicode="&#xb2;" horiz-adv-x="412" 
d="M313 479l-76 -66h160v-99h-394l201 201c28 28 56 69 56 111c0 28 -23 58 -56 58c-35 0 -54 -24 -54 -55c0 -6 1 -12 2 -19h-140c4 104 75 174 191 174c103 0 189 -62 189 -161c0 -65 -29 -102 -79 -144z" />
    <glyph glyph-name="registered" unicode="&#xae;" horiz-adv-x="800" 
d="M400 -20c-221 0 -396 177 -396 396c0 221 175 398 396 398c220 0 396 -177 396 -398c0 -219 -176 -396 -396 -396zM400 74c170 0 302 126 302 302c0 178 -132 304 -302 304c-173 0 -302 -126 -302 -304c0 -176 129 -302 302 -302zM490 349l100 -174h-100l-92 174h-64
v-174h-92v412h200c95 0 160 -17 160 -126c0 -76 -39 -107 -112 -112zM334 411h110c46 0 72 10 72 62c0 42 -53 42 -93 42h-89v-104z" />
    <glyph glyph-name="minus" unicode="&#x2212;" 
d="M87 332h512v-150h-512v150z" />
    <glyph glyph-name="eth" unicode="&#xf0;" horiz-adv-x="662" 
d="M41 744l106 104c106 -49 131 -65 158 -83l127 67l65 -73l-104 -55c127 -106 247 -216 247 -407c0 -221 -156 -314 -315 -314c-127 0 -303 80 -303 272c0 166 140 263 273 263c25 0 42 -3 59 -6c-32 40 -72 80 -113 112l-130 -69l-66 71l109 58c-36 23 -75 44 -113 60z
M331 372c-74 0 -117 -53 -117 -116c0 -65 43 -115 117 -115s117 50 117 115c0 63 -43 116 -117 116z" />
    <glyph glyph-name="multiply" unicode="&#xd7;" 
d="M238 256l-151 151l106 106l150 -152l149 152l106 -106l-149 -151l150 -150l-106 -106l-150 150l-150 -150l-106 106z" />
    <glyph glyph-name="threesuperior" unicode="&#xb3;" horiz-adv-x="412" 
d="M4 461h130c0 -36 28 -63 68 -63c39 0 68 23 68 60c0 34 -32 60 -67 60c-8 0 -15 -2 -23 -3v78h13c33 0 56 19 56 50c0 27 -21 45 -50 45c-32 0 -52 -23 -52 -52h-118c10 94 81 148 182 148c88 0 157 -47 157 -131c0 -36 -16 -74 -52 -93c52 -12 80 -68 80 -114
c0 -98 -93 -149 -190 -149c-56 0 -107 14 -146 51c-30 27 -58 74 -56 113z" />
    <glyph glyph-name="copyright" unicode="&#xa9;" horiz-adv-x="800" 
d="M400 -20c-221 0 -396 177 -396 396c0 221 175 398 396 398c220 0 396 -177 396 -398c0 -219 -176 -396 -396 -396zM400 74c170 0 302 126 302 302c0 178 -132 304 -302 304c-173 0 -302 -126 -302 -304c0 -176 129 -302 302 -302zM602 459h-90c-8 49 -49 73 -98 73
c-79 0 -123 -71 -123 -150c0 -75 49 -153 126 -153c47 0 92 29 95 77h90c-11 -96 -93 -154 -185 -154c-133 0 -220 101 -220 228c0 132 82 229 218 229c95 0 171 -56 187 -150z" />
    <glyph glyph-name="Aacute" unicode="&#xc1;" horiz-adv-x="781" 
d="M526 131h-270l-52 -131h-208l290 754h214l284 -754h-209zM473 281l-80 240h-2l-81 -240h163zM537 951l-171 -151l-81 59l141 172z" />
    <glyph glyph-name="Acircumflex" unicode="&#xc2;" horiz-adv-x="781" 
d="M526 131h-270l-52 -131h-208l290 754h214l284 -754h-209zM473 281l-80 240h-2l-81 -240h163zM171 876l218 164l221 -164l-77 -84l-144 111l-144 -111z" />
    <glyph glyph-name="Adieresis" unicode="&#xc4;" horiz-adv-x="781" 
d="M526 131h-270l-52 -131h-208l290 754h214l284 -754h-209zM473 281l-80 240h-2l-81 -240h163zM263 1011c54 0 98 -44 98 -98c0 -55 -44 -98 -98 -98c-55 0 -99 43 -99 98c0 54 44 98 99 98zM519 1011c54 0 98 -44 98 -98c0 -55 -44 -98 -98 -98c-55 0 -99 43 -99 98
c0 54 44 98 99 98z" />
    <glyph glyph-name="Agrave" unicode="&#xc0;" horiz-adv-x="781" 
d="M526 131h-270l-52 -131h-208l290 754h214l284 -754h-209zM473 281l-80 240h-2l-81 -240h163zM245 951l111 80l141 -172l-81 -59z" />
    <glyph glyph-name="Aring" unicode="&#xc5;" horiz-adv-x="781" 
d="M526 131h-270l-52 -131h-208l290 754h214l284 -754h-209zM473 281l-80 240h-2l-81 -240h163zM389 1011c75 0 155 -28 155 -115c0 -85 -78 -115 -152 -115s-155 27 -155 114c0 86 77 116 152 116zM391 939c-28 0 -59 -11 -59 -43s31 -43 59 -43c27 0 58 11 58 43
s-31 43 -58 43z" />
    <glyph glyph-name="Atilde" unicode="&#xc3;" horiz-adv-x="781" 
d="M526 131h-270l-52 -131h-208l290 754h214l284 -754h-209zM473 281l-80 240h-2l-81 -240h163zM274 827h-82l-1 11c0 32 6 62 22 89c18 31 52 56 89 56c51 0 123 -34 163 -34c25 0 32 15 40 36h85c-6 -72 -45 -158 -130 -158c-51 0 -105 37 -152 37c-24 0 -28 -18 -34 -37z
" />
    <glyph glyph-name="Ccedilla" unicode="&#xc7;" horiz-adv-x="660" 
d="M603 736v-235c-40 54 -105 83 -172 83c-120 0 -201 -92 -201 -209c0 -119 82 -205 204 -205c64 0 128 31 169 80v-235c-65 -20 -112 -35 -173 -35c-105 0 -205 40 -283 111c-83 75 -121 173 -121 285c0 103 39 202 111 276c74 76 181 122 287 122c63 0 121 -14 179 -38z
M469 -94l-151 -143l-78 49l130 158z" />
    <glyph glyph-name="Eacute" unicode="&#xc9;" horiz-adv-x="550" 
d="M493 588h-233v-126h221v-166h-221v-130h233v-166h-429v754h429v-166zM401 951l-171 -151l-81 59l141 172z" />
    <glyph glyph-name="Ecircumflex" unicode="&#xca;" horiz-adv-x="550" 
d="M493 588h-233v-126h221v-166h-221v-130h233v-166h-429v754h429v-166zM55 876l218 164l221 -164l-77 -84l-144 111l-144 -111z" />
    <glyph glyph-name="Edieresis" unicode="&#xcb;" horiz-adv-x="550" 
d="M493 588h-233v-126h221v-166h-221v-130h233v-166h-429v754h429v-166zM147 1011c54 0 98 -44 98 -98c0 -55 -44 -98 -98 -98c-55 0 -99 43 -99 98c0 54 44 98 99 98zM403 1011c54 0 98 -44 98 -98c0 -55 -44 -98 -98 -98c-55 0 -99 43 -99 98c0 54 44 98 99 98z" />
    <glyph glyph-name="Egrave" unicode="&#xc8;" horiz-adv-x="550" 
d="M493 588h-233v-126h221v-166h-221v-130h233v-166h-429v754h429v-166zM149 951l111 80l141 -172l-81 -59z" />
    <glyph glyph-name="Iacute" unicode="&#xcd;" horiz-adv-x="324" 
d="M260 754v-754h-196v754h196zM303 951l-171 -151l-81 59l141 172z" />
    <glyph glyph-name="Icircumflex" unicode="&#xce;" horiz-adv-x="324" 
d="M260 754v-754h-196v754h196zM-43 876l218 164l221 -164l-77 -84l-144 111l-144 -111z" />
    <glyph glyph-name="Idieresis" unicode="&#xcf;" horiz-adv-x="324" 
d="M260 754v-754h-196v754h196zM34 1011c54 0 98 -44 98 -98c0 -55 -44 -98 -98 -98c-55 0 -99 43 -99 98c0 54 44 98 99 98zM290 1011c54 0 98 -44 98 -98c0 -55 -44 -98 -98 -98c-55 0 -99 43 -99 98c0 54 44 98 99 98z" />
    <glyph glyph-name="Igrave" unicode="&#xcc;" horiz-adv-x="324" 
d="M260 754v-754h-196v754h196zM21 951l111 80l141 -172l-81 -59z" />
    <glyph glyph-name="Ntilde" unicode="&#xd1;" horiz-adv-x="881" 
d="M64 0v754h196l359 -461h2v461h196v-754h-196l-359 462h-2v-462h-196zM324 827h-82l-1 11c0 32 6 62 22 89c18 31 52 56 89 56c51 0 123 -34 163 -34c25 0 32 15 40 36h85c-6 -72 -45 -158 -130 -158c-51 0 -105 37 -152 37c-24 0 -28 -18 -34 -37z" />
    <glyph glyph-name="Oacute" unicode="&#xd3;" horiz-adv-x="887" 
d="M443 779c217 0 417 -160 417 -388c0 -244 -175 -416 -417 -416s-417 172 -417 416c0 228 200 388 417 388zM443 589c-117 0 -213 -95 -213 -199c0 -130 96 -225 213 -225s213 95 213 225c0 104 -96 199 -213 199zM590 951l-171 -151l-81 59l141 172z" />
    <glyph glyph-name="Ocircumflex" unicode="&#xd4;" horiz-adv-x="887" 
d="M443 779c217 0 417 -160 417 -388c0 -244 -175 -416 -417 -416s-417 172 -417 416c0 228 200 388 417 388zM443 589c-117 0 -213 -95 -213 -199c0 -130 96 -225 213 -225s213 95 213 225c0 104 -96 199 -213 199zM224 876l218 164l221 -164l-77 -84l-144 111l-144 -111z
" />
    <glyph glyph-name="Odieresis" unicode="&#xd6;" horiz-adv-x="887" 
d="M443 779c217 0 417 -160 417 -388c0 -244 -175 -416 -417 -416s-417 172 -417 416c0 228 200 388 417 388zM443 589c-117 0 -213 -95 -213 -199c0 -130 96 -225 213 -225s213 95 213 225c0 104 -96 199 -213 199zM316 1011c54 0 98 -44 98 -98c0 -55 -44 -98 -98 -98
c-55 0 -99 43 -99 98c0 54 44 98 99 98zM572 1011c54 0 98 -44 98 -98c0 -55 -44 -98 -98 -98c-55 0 -99 43 -99 98c0 54 44 98 99 98z" />
    <glyph glyph-name="Ograve" unicode="&#xd2;" horiz-adv-x="887" 
d="M443 779c217 0 417 -160 417 -388c0 -244 -175 -416 -417 -416s-417 172 -417 416c0 228 200 388 417 388zM443 589c-117 0 -213 -95 -213 -199c0 -130 96 -225 213 -225s213 95 213 225c0 104 -96 199 -213 199zM298 951l111 80l141 -172l-81 -59z" />
    <glyph glyph-name="Otilde" unicode="&#xd5;" horiz-adv-x="887" 
d="M443 779c217 0 417 -160 417 -388c0 -244 -175 -416 -417 -416s-417 172 -417 416c0 228 200 388 417 388zM443 589c-117 0 -213 -95 -213 -199c0 -130 96 -225 213 -225s213 95 213 225c0 104 -96 199 -213 199zM327 827h-82l-1 11c0 32 6 62 22 89c18 31 52 56 89 56
c51 0 123 -34 163 -34c25 0 32 15 40 36h85c-6 -72 -45 -158 -130 -158c-51 0 -105 37 -152 37c-24 0 -28 -18 -34 -37z" />
    <glyph glyph-name="Scaron" unicode="&#x160;" horiz-adv-x="616" 
d="M556 712l-78 -152c-36 30 -82 50 -130 50c-36 0 -84 -21 -84 -63c0 -44 53 -61 87 -72l50 -15c105 -31 186 -84 186 -206c0 -75 -18 -152 -78 -203c-59 -50 -138 -71 -214 -71c-95 0 -188 32 -265 86l84 158c49 -43 107 -78 174 -78c46 0 95 23 95 76
c0 55 -77 74 -119 86c-123 35 -204 67 -204 213c0 153 109 253 260 253c76 0 169 -24 236 -62zM88 955l74 85l144 -112l144 112l77 -85l-221 -163z" />
    <glyph glyph-name="Uacute" unicode="&#xda;" horiz-adv-x="778" 
d="M522 754h196v-424c0 -97 -4 -193 -79 -266c-63 -62 -162 -84 -250 -84s-187 22 -250 84c-75 73 -79 169 -79 266v424h196v-397c0 -98 7 -205 133 -205s133 107 133 205v397zM535 951l-171 -151l-81 59l141 172z" />
    <glyph glyph-name="Ucircumflex" unicode="&#xdb;" horiz-adv-x="778" 
d="M522 754h196v-424c0 -97 -4 -193 -79 -266c-63 -62 -162 -84 -250 -84s-187 22 -250 84c-75 73 -79 169 -79 266v424h196v-397c0 -98 7 -205 133 -205s133 107 133 205v397zM169 876l218 164l221 -164l-77 -84l-144 111l-144 -111z" />
    <glyph glyph-name="Udieresis" unicode="&#xdc;" horiz-adv-x="778" 
d="M522 754h196v-424c0 -97 -4 -193 -79 -266c-63 -62 -162 -84 -250 -84s-187 22 -250 84c-75 73 -79 169 -79 266v424h196v-397c0 -98 7 -205 133 -205s133 107 133 205v397zM261 1011c54 0 98 -44 98 -98c0 -55 -44 -98 -98 -98c-55 0 -99 43 -99 98c0 54 44 98 99 98z
M517 1011c54 0 98 -44 98 -98c0 -55 -44 -98 -98 -98c-55 0 -99 43 -99 98c0 54 44 98 99 98z" />
    <glyph glyph-name="Ugrave" unicode="&#xd9;" horiz-adv-x="778" 
d="M522 754h196v-424c0 -97 -4 -193 -79 -266c-63 -62 -162 -84 -250 -84s-187 22 -250 84c-75 73 -79 169 -79 266v424h196v-397c0 -98 7 -205 133 -205s133 107 133 205v397zM243 951l111 80l141 -172l-81 -59z" />
    <glyph glyph-name="Yacute" unicode="&#xdd;" horiz-adv-x="714" 
d="M259 362l-278 392h235l141 -205l141 205h235l-278 -392v-362h-196v362zM523 951l-171 -151l-81 59l141 172z" />
    <glyph glyph-name="Ydieresis" unicode="&#x178;" horiz-adv-x="714" 
d="M259 362l-278 392h235l141 -205l141 205h235l-278 -392v-362h-196v362zM239 1011c54 0 98 -44 98 -98c0 -55 -44 -98 -98 -98c-55 0 -99 43 -99 98c0 54 44 98 99 98zM495 1011c54 0 98 -44 98 -98c0 -55 -44 -98 -98 -98c-55 0 -99 43 -99 98c0 54 44 98 99 98z" />
    <glyph glyph-name="Zcaron" unicode="&#x17d;" horiz-adv-x="707" 
d="M341 166h316v-166h-646l357 588h-296v166h624zM144 955l74 85l144 -112l144 112l77 -85l-221 -163z" />
    <glyph glyph-name="aacute" unicode="&#xe1;" horiz-adv-x="682" 
d="M328 372c-74 0 -117 -53 -117 -116c0 -65 43 -115 117 -115s117 50 117 115c0 63 -43 116 -117 116zM621 513v-513h-182v57h-2c-32 -51 -95 -74 -155 -74c-152 0 -259 127 -259 274s105 273 257 273c59 0 121 -22 159 -67v50h182zM487 740l-171 -151l-81 59l141 172z" />
    <glyph glyph-name="acircumflex" unicode="&#xe2;" horiz-adv-x="682" 
d="M328 372c-74 0 -117 -53 -117 -116c0 -65 43 -115 117 -115s117 50 117 115c0 63 -43 116 -117 116zM621 513v-513h-182v57h-2c-32 -51 -95 -74 -155 -74c-152 0 -259 127 -259 274s105 273 257 273c59 0 121 -22 159 -67v50h182zM121 665l218 164l221 -164l-77 -84
l-144 111l-144 -111z" />
    <glyph glyph-name="adieresis" unicode="&#xe4;" horiz-adv-x="682" 
d="M328 372c-74 0 -117 -53 -117 -116c0 -65 43 -115 117 -115s117 50 117 115c0 63 -43 116 -117 116zM621 513v-513h-182v57h-2c-32 -51 -95 -74 -155 -74c-152 0 -259 127 -259 274s105 273 257 273c59 0 121 -22 159 -67v50h182zM213 800c54 0 98 -44 98 -98
c0 -55 -44 -98 -98 -98c-55 0 -99 43 -99 98c0 54 44 98 99 98zM469 800c54 0 98 -44 98 -98c0 -55 -44 -98 -98 -98c-55 0 -99 43 -99 98c0 54 44 98 99 98z" />
    <glyph glyph-name="agrave" unicode="&#xe0;" horiz-adv-x="682" 
d="M328 372c-74 0 -117 -53 -117 -116c0 -65 43 -115 117 -115s117 50 117 115c0 63 -43 116 -117 116zM621 513v-513h-182v57h-2c-32 -51 -95 -74 -155 -74c-152 0 -259 127 -259 274s105 273 257 273c59 0 121 -22 159 -67v50h182zM215 740l111 80l141 -172l-81 -59z" />
    <glyph glyph-name="aring" unicode="&#xe5;" horiz-adv-x="682" 
d="M328 372c-74 0 -117 -53 -117 -116c0 -65 43 -115 117 -115s117 50 117 115c0 63 -43 116 -117 116zM621 513v-513h-182v57h-2c-32 -51 -95 -74 -155 -74c-152 0 -259 127 -259 274s105 273 257 273c59 0 121 -22 159 -67v50h182zM340 815c75 0 155 -28 155 -115
c0 -85 -78 -115 -152 -115s-155 27 -155 114c0 86 77 116 152 116zM342 743c-28 0 -59 -11 -59 -43s31 -43 59 -43c27 0 58 11 58 43s-31 43 -58 43z" />
    <glyph glyph-name="atilde" unicode="&#xe3;" horiz-adv-x="682" 
d="M328 372c-74 0 -117 -53 -117 -116c0 -65 43 -115 117 -115s117 50 117 115c0 63 -43 116 -117 116zM621 513v-513h-182v57h-2c-32 -51 -95 -74 -155 -74c-152 0 -259 127 -259 274s105 273 257 273c59 0 121 -22 159 -67v50h182zM225 616h-82l-1 11c0 32 6 62 22 89
c18 31 52 56 89 56c51 0 123 -34 163 -34c25 0 32 15 40 36h85c-6 -72 -45 -158 -130 -158c-51 0 -105 37 -152 37c-24 0 -28 -18 -34 -37z" />
    <glyph glyph-name="ccedilla" unicode="&#xe7;" horiz-adv-x="483" 
d="M430 500v-154c-27 20 -59 36 -94 36c-70 0 -125 -54 -125 -125c0 -74 53 -126 128 -126c32 0 67 13 91 35v-154c-40 -20 -84 -29 -128 -29c-152 0 -279 113 -279 268c0 165 126 279 287 279c42 0 84 -10 120 -30zM356 -94l-151 -143l-78 49l130 158z" />
    <glyph glyph-name="eacute" unicode="&#xe9;" horiz-adv-x="610" 
d="M207 331h211c-9 49 -54 81 -103 81c-53 0 -97 -28 -108 -81zM587 245v-19h-383c0 -74 39 -114 114 -114c39 0 67 13 87 47h175c-14 -60 -50 -104 -97 -133s-105 -43 -164 -43c-170 0 -297 96 -297 273c0 171 117 274 284 274c178 0 281 -110 281 -285zM456 740l-171 -151
l-81 59l141 172z" />
    <glyph glyph-name="ecircumflex" unicode="&#xea;" horiz-adv-x="610" 
d="M207 331h211c-9 49 -54 81 -103 81c-53 0 -97 -28 -108 -81zM587 245v-19h-383c0 -74 39 -114 114 -114c39 0 67 13 87 47h175c-14 -60 -50 -104 -97 -133s-105 -43 -164 -43c-170 0 -297 96 -297 273c0 171 117 274 284 274c178 0 281 -110 281 -285zM85 665l218 164
l221 -164l-77 -84l-144 111l-144 -111z" />
    <glyph glyph-name="edieresis" unicode="&#xeb;" horiz-adv-x="610" 
d="M207 331h211c-9 49 -54 81 -103 81c-53 0 -97 -28 -108 -81zM587 245v-19h-383c0 -74 39 -114 114 -114c39 0 67 13 87 47h175c-14 -60 -50 -104 -97 -133s-105 -43 -164 -43c-170 0 -297 96 -297 273c0 171 117 274 284 274c178 0 281 -110 281 -285zM177 800
c54 0 98 -44 98 -98c0 -55 -44 -98 -98 -98c-55 0 -99 43 -99 98c0 54 44 98 99 98zM433 800c54 0 98 -44 98 -98c0 -55 -44 -98 -98 -98c-55 0 -99 43 -99 98c0 54 44 98 99 98z" />
    <glyph glyph-name="egrave" unicode="&#xe8;" horiz-adv-x="610" 
d="M207 331h211c-9 49 -54 81 -103 81c-53 0 -97 -28 -108 -81zM587 245v-19h-383c0 -74 39 -114 114 -114c39 0 67 13 87 47h175c-14 -60 -50 -104 -97 -133s-105 -43 -164 -43c-170 0 -297 96 -297 273c0 171 117 274 284 274c178 0 281 -110 281 -285zM154 740l111 80
l141 -172l-81 -59z" />
    <glyph glyph-name="iacute" unicode="&#xed;" horiz-adv-x="302" 
d="M242 513v-513h-182v513h182zM292 740l-171 -151l-81 59l141 172z" />
    <glyph glyph-name="icircumflex" unicode="&#xee;" horiz-adv-x="302" 
d="M242 513v-513h-182v513h182zM-69 665l218 164l221 -164l-77 -84l-144 111l-144 -111z" />
    <glyph glyph-name="idieresis" unicode="&#xef;" horiz-adv-x="302" 
d="M242 513v-513h-182v513h182zM23 800c54 0 98 -44 98 -98c0 -55 -44 -98 -98 -98c-55 0 -99 43 -99 98c0 54 44 98 99 98zM279 800c54 0 98 -44 98 -98c0 -55 -44 -98 -98 -98c-55 0 -99 43 -99 98c0 54 44 98 99 98z" />
    <glyph glyph-name="igrave" unicode="&#xec;" horiz-adv-x="302" 
d="M242 513v-513h-182v513h182zM10 740l111 80l141 -172l-81 -59z" />
    <glyph glyph-name="ntilde" unicode="&#xf1;" horiz-adv-x="661" 
d="M242 513v-66h2c42 62 93 83 164 83c138 0 193 -87 193 -213v-317h-182v250c0 49 8 135 -82 135c-74 0 -95 -55 -95 -119v-266h-182v513h182zM214 616h-82l-1 11c0 32 6 62 22 89c18 31 52 56 89 56c51 0 123 -34 163 -34c25 0 32 15 40 36h85c-6 -72 -45 -158 -130 -158
c-51 0 -105 37 -152 37c-24 0 -28 -18 -34 -37z" />
    <glyph glyph-name="oacute" unicode="&#xf3;" horiz-adv-x="662" 
d="M331 530c165 0 309 -99 309 -274c0 -174 -144 -273 -309 -273c-164 0 -309 98 -309 273s144 274 309 274zM331 372c-74 0 -117 -53 -117 -116c0 -65 43 -115 117 -115s117 50 117 115c0 63 -43 116 -117 116zM482 740l-171 -151l-81 59l141 172z" />
    <glyph glyph-name="ocircumflex" unicode="&#xf4;" horiz-adv-x="662" 
d="M331 530c165 0 309 -99 309 -274c0 -174 -144 -273 -309 -273c-164 0 -309 98 -309 273s144 274 309 274zM331 372c-74 0 -117 -53 -117 -116c0 -65 43 -115 117 -115s117 50 117 115c0 63 -43 116 -117 116zM111 665l218 164l221 -164l-77 -84l-144 111l-144 -111z" />
    <glyph glyph-name="odieresis" unicode="&#xf6;" horiz-adv-x="662" 
d="M331 530c165 0 309 -99 309 -274c0 -174 -144 -273 -309 -273c-164 0 -309 98 -309 273s144 274 309 274zM331 372c-74 0 -117 -53 -117 -116c0 -65 43 -115 117 -115s117 50 117 115c0 63 -43 116 -117 116zM203 800c54 0 98 -44 98 -98c0 -55 -44 -98 -98 -98
c-55 0 -99 43 -99 98c0 54 44 98 99 98zM459 800c54 0 98 -44 98 -98c0 -55 -44 -98 -98 -98c-55 0 -99 43 -99 98c0 54 44 98 99 98z" />
    <glyph glyph-name="ograve" unicode="&#xf2;" horiz-adv-x="662" 
d="M331 530c165 0 309 -99 309 -274c0 -174 -144 -273 -309 -273c-164 0 -309 98 -309 273s144 274 309 274zM331 372c-74 0 -117 -53 -117 -116c0 -65 43 -115 117 -115s117 50 117 115c0 63 -43 116 -117 116zM180 740l111 80l141 -172l-81 -59z" />
    <glyph glyph-name="otilde" unicode="&#xf5;" horiz-adv-x="662" 
d="M331 530c165 0 309 -99 309 -274c0 -174 -144 -273 -309 -273c-164 0 -309 98 -309 273s144 274 309 274zM331 372c-74 0 -117 -53 -117 -116c0 -65 43 -115 117 -115s117 50 117 115c0 63 -43 116 -117 116zM215 616h-82l-1 11c0 32 6 62 22 89c18 31 52 56 89 56
c51 0 123 -34 163 -34c25 0 32 15 40 36h85c-6 -72 -45 -158 -130 -158c-51 0 -105 37 -152 37c-24 0 -28 -18 -34 -37z" />
    <glyph glyph-name="scaron" unicode="&#x161;" horiz-adv-x="513" 
d="M460 497l-61 -116c-28 15 -67 25 -98 25c-21 0 -57 -9 -57 -35c0 -35 57 -40 82 -45c85 -17 149 -57 149 -152c0 -135 -123 -191 -242 -191c-73 0 -145 21 -207 59l66 127c37 -26 99 -52 144 -52c23 0 57 11 57 39c0 40 -57 42 -114 57s-114 43 -114 135
c0 126 114 182 226 182c58 0 116 -9 169 -33zM37 744l74 85l144 -112l144 112l77 -85l-221 -163z" />
    <glyph glyph-name="uacute" unicode="&#xfa;" horiz-adv-x="659" 
d="M57 513h182v-274c0 -65 16 -111 91 -111s91 46 91 111v274h182v-309c0 -169 -119 -221 -273 -221s-273 52 -273 221v309zM486 740l-171 -151l-81 59l141 172z" />
    <glyph glyph-name="ucircumflex" unicode="&#xfb;" horiz-adv-x="659" 
d="M57 513h182v-274c0 -65 16 -111 91 -111s91 46 91 111v274h182v-309c0 -169 -119 -221 -273 -221s-273 52 -273 221v309zM110 665l218 164l221 -164l-77 -84l-144 111l-144 -111z" />
    <glyph glyph-name="udieresis" unicode="&#xfc;" horiz-adv-x="659" 
d="M57 513h182v-274c0 -65 16 -111 91 -111s91 46 91 111v274h182v-309c0 -169 -119 -221 -273 -221s-273 52 -273 221v309zM202 800c54 0 98 -44 98 -98c0 -55 -44 -98 -98 -98c-55 0 -99 43 -99 98c0 54 44 98 99 98zM458 800c54 0 98 -44 98 -98c0 -55 -44 -98 -98 -98
c-55 0 -99 43 -99 98c0 54 44 98 99 98z" />
    <glyph glyph-name="ugrave" unicode="&#xf9;" horiz-adv-x="659" 
d="M57 513h182v-274c0 -65 16 -111 91 -111s91 46 91 111v274h182v-309c0 -169 -119 -221 -273 -221s-273 52 -273 221v309zM174 740l111 80l141 -172l-81 -59z" />
    <glyph glyph-name="yacute" unicode="&#xfd;" horiz-adv-x="654" 
d="M233 70l-248 443h210l137 -263l134 263h207l-411 -769h-204zM493 740l-171 -151l-81 59l141 172z" />
    <glyph glyph-name="ydieresis" unicode="&#xff;" horiz-adv-x="654" 
d="M233 70l-248 443h210l137 -263l134 263h207l-411 -769h-204zM214 800c54 0 98 -44 98 -98c0 -55 -44 -98 -98 -98c-55 0 -99 43 -99 98c0 54 44 98 99 98zM470 800c54 0 98 -44 98 -98c0 -55 -44 -98 -98 -98c-55 0 -99 43 -99 98c0 54 44 98 99 98z" />
    <glyph glyph-name="zcaron" unicode="&#x17e;" horiz-adv-x="559" 
d="M312 151h216v-151h-520l241 362h-209v151h512zM60 744l74 85l144 -112l144 112l77 -85l-221 -163z" />
    <glyph glyph-name="Delta" unicode="&#x2206;" horiz-adv-x="802" 
d="M28 0v94l270 707h212l262 -705v-96h-744zM214 137h364l-119 304c-17 57 -48 143 -61 191h-4c-10 -37 -39 -116 -57 -176z" />
    <glyph glyph-name="Omega" unicode="&#x2126;" horiz-adv-x="869" 
d="M204 137v4c-70 57 -146 159 -146 299c0 190 149 357 379 357c241 0 371 -186 371 -351c0 -140 -71 -243 -148 -305v-4h165v-137h-339v103c76 46 143 136 143 307c1 135 -70 247 -192 247c-118 0 -199 -104 -199 -253c0 -154 65 -260 144 -301v-103h-340v137h162z" />
    <glyph glyph-name="uni03BC" unicode="&#x3bc;" horiz-adv-x="659" 
d="M57 513h182v-274c0 -65 16 -111 91 -111s91 46 91 111v274h182v-309c0 -174 -139 -221 -233 -221c-64 0 -108 27 -131 49v-288h-182v769z" />
    <glyph glyph-name="pi" unicode="&#x3c0;" horiz-adv-x="743" 
d="M715 448h-80v-272c0 -81 6 -138 15 -176h-173c-15 24 -20 90 -20 167v281h-148c-4 -119 -31 -339 -71 -448h-173c38 128 69 332 70 448c-50 0 -87 -2 -115 -10l-18 112c30 25 97 41 208 41h519z" />
    <glyph glyph-name="Euro" unicode="&#x20ac;" 
d="M628 740v-157c-26 26 -78 51 -158 51c-102 0 -153 -48 -169 -129h286l-38 -102h-261c0 -7 -1 -18 -1 -28c0 -12 1 -25 2 -34h236l-38 -102h-183c16 -79 69 -121 166 -121c73 0 130 23 158 49v-157c-25 -16 -87 -39 -187 -39c-187 0 -295 88 -327 268h-95l38 102h47
c-1 9 -1 20 -1 33c0 11 0 20 1 29h-85l38 102h56c31 163 123 278 328 278c93 0 161 -25 187 -43z" />
    <glyph glyph-name="afii61289" unicode="&#x2113;" horiz-adv-x="643" 
d="M549 214l71 -73c-68 -126 -170 -168 -267 -168c-138 0 -203 75 -222 174c-1 3 -1 6 -1 10c-20 -13 -38 -28 -59 -42l-44 90c35 27 69 50 100 76v263c0 207 96 302 227 302c126 0 182 -95 182 -208c0 -133 -90 -253 -239 -385l1 -41c3 -62 43 -100 98 -100
c62 0 118 51 153 102zM297 560v-154c74 80 124 169 124 237c0 52 -16 84 -57 84c-33 0 -67 -36 -67 -167z" />
    <glyph glyph-name="estimated" unicode="&#x212e;" horiz-adv-x="981" 
d="M942 366h-732c-3 0 -6 -2 -6 -5v-222c0 -9 4 -18 10 -25c71 -73 168 -119 277 -119c117 0 220 52 291 133h65c-80 -95 -212 -157 -357 -157c-250 0 -452 182 -452 406c0 225 202 407 452 407s452 -182 452 -407v-11zM776 395v222c0 10 -3 20 -11 27
c-71 70 -167 115 -274 115s-205 -47 -276 -119c-7 -7 -11 -17 -11 -27v-218c0 -3 3 -8 6 -8h561c4 0 5 5 5 8z" />
    <glyph glyph-name="partialdiff" unicode="&#x2202;" horiz-adv-x="707" 
d="M122 678l-49 124c35 25 112 68 233 68c190 0 347 -155 347 -432c0 -279 -137 -464 -352 -464c-179 0 -261 156 -261 271c0 177 112 296 263 296c98 0 158 -62 176 -91h1c1 8 1 24 1 32c0 126 -73 249 -199 249c-76 0 -130 -31 -160 -53zM319 114h1c81 0 132 113 144 202
c-9 32 -53 90 -123 90c-76 0 -127 -78 -127 -166c0 -69 43 -126 105 -126z" />
    <glyph glyph-name="product" unicode="&#x220f;" horiz-adv-x="877" 
d="M850 631h-122v-739h-172v739h-236v-739h-172v739h-122v153h824v-153z" />
    <glyph glyph-name="summation" unicode="&#x2211;" horiz-adv-x="679" 
d="M660 -108h-634v105l279 340l-268 330v117h601v-145h-363v-4l228 -273l-255 -312v-4h412v-154z" />
    <glyph glyph-name="uni2219" unicode="&#x2219;" horiz-adv-x="343" 
d="M172 373c65 0 117 -52 117 -117c0 -64 -52 -117 -117 -117s-117 53 -117 117c0 65 52 117 117 117z" />
    <glyph glyph-name="radical" unicode="&#x221a;" horiz-adv-x="722" 
d="M742 941l-276 -1099h-137l-178 482l-88 -35l-28 91l218 89l119 -345c9 -36 19 -72 26 -100l2 -1c5 27 11 67 20 109l200 809h122z" />
    <glyph glyph-name="infinity" unicode="&#x221e;" horiz-adv-x="907" 
d="M852 324v-1c0 -130 -94 -206 -191 -206c-64 0 -131 24 -207 129c-60 -75 -120 -129 -213 -129c-98 0 -187 79 -187 200s85 204 197 204c87 0 149 -47 208 -125c45 51 103 126 208 125c102 -1 185 -77 185 -197zM252 207h2c61 0 109 55 150 106c-46 64 -83 119 -155 119
c-62 0 -103 -47 -103 -116c0 -59 46 -109 106 -109zM658 432h-2c-67 0 -116 -69 -151 -111c67 -87 103 -114 158 -114c62 0 96 61 96 109c0 66 -40 116 -101 116z" />
    <glyph glyph-name="integral" unicode="&#x222b;" horiz-adv-x="476" 
d="M454 961l-17 -114c-12 5 -26 9 -43 9c-24 0 -46 -9 -60 -30c-23 -30 -29 -93 -29 -183c0 -185 18 -321 18 -528c0 -101 -16 -177 -40 -223c-35 -66 -102 -92 -165 -92c-38 0 -78 9 -98 19l20 118c13 -5 30 -11 52 -11c20 0 40 6 53 22c21 27 31 72 31 167
c0 211 -19 349 -19 545c0 133 22 206 74 260c36 38 93 54 147 54c31 0 62 -7 76 -13z" />
    <glyph glyph-name="approxequal" unicode="&#x2248;" horiz-adv-x="654" 
d="M551 523l60 -58c-43 -74 -103 -120 -166 -120c-49 0 -81 14 -133 45c-33 20 -61 38 -100 38c-51 0 -82 -41 -112 -81l-60 57c35 66 104 120 179 120c56 0 92 -22 123 -40c44 -27 66 -42 101 -42c44 0 75 32 108 81zM551 300l60 -58c-43 -73 -101 -120 -168 -120
c-48 0 -81 16 -131 45c-35 21 -62 38 -99 38c-53 0 -82 -40 -113 -82l-60 58c35 66 105 120 179 120c56 0 92 -23 122 -40c36 -21 63 -43 101 -43c46 0 74 32 109 82z" />
    <glyph glyph-name="notequal" unicode="&#x2260;" horiz-adv-x="654" 
d="M486 587l-43 -97h155v-97h-193l-66 -150h259v-96h-297l-58 -132l-77 32l44 100h-154v96h193l65 150h-258v97h296l57 129z" />
    <glyph glyph-name="lessequal" unicode="&#x2264;" horiz-adv-x="654" 
d="M596 119l-535 255v104l534 254v-110l-436 -195v-2l437 -196v-110zM599 -21h-542v99h542v-99z" />
    <glyph glyph-name="greaterequal" unicode="&#x2265;" horiz-adv-x="654" 
d="M62 732l535 -254v-105l-534 -254v110l436 196v3l-437 194v110zM596 -21h-538v99h538v-99z" />
    <glyph glyph-name="lozenge" unicode="&#x25ca;" horiz-adv-x="722" 
d="M666 391l-240 -448h-136l-234 448l239 449h137zM514 387l-129 256c-8 20 -18 46 -22 64h-4c-5 -19 -14 -43 -22 -64l-129 -249l130 -260c8 -20 17 -46 20 -60h5c4 16 14 47 20 59z" />
    <glyph glyph-name="uni00A0" unicode="&#xa0;" horiz-adv-x="343" 
 />
    <glyph glyph-name="uni00AD" unicode="&#xad;" horiz-adv-x="392" 
d="M53 396h286v-150h-286v150z" />
    <glyph glyph-name="uni02C9" unicode="&#x2c9;" horiz-adv-x="603" 
d="M75 752h452v-107h-452v107z" />
    <glyph glyph-name="uni03A9" unicode="&#x3a9;" horiz-adv-x="869" 
d="M204 137v4c-70 57 -146 159 -146 299c0 190 149 357 379 357c241 0 371 -186 371 -351c0 -140 -71 -243 -148 -305v-4h165v-137h-339v103c76 46 143 136 143 307c1 135 -70 247 -192 247c-118 0 -199 -104 -199 -253c0 -154 65 -260 144 -301v-103h-340v137h162z" />
    <glyph glyph-name="uni2215" unicode="&#x2215;" horiz-adv-x="194" 
d="M267 754h98l-438 -754h-98z" />
    </font>
</defs>
</svg>
